# xmcd
#
# Track frame offsets:
#	150
#	17049
#	32024
#	40569
#	57148
#	70269
#	80993
#	93263
#	106138
#	118311
#	130699
#	142932
#	155355
#	167840
#	181852
#	197363
#	210664
#	224136
#
# Disc length: 3170 seconds
#
# Revision: 0
# Processed by: cddbd v1.5.1PL2 Copyright (c) Steve Scherf et al.
# Submitted via: dBpowerAMP V4.0
#
DISCID=f60c6012
DTITLE=AS MINEIRINHAS - OS GRANDES SUCESSOS DE OURO
DYEAR=1900
DGENRE=
TTITLE0=CARTAS NA MESA
TTITLE1=MEU DENGO
TTITLE2=MORENO VOCÊ ME MATA
TTITLE3=MENINA APAIXONADA
TTITLE4=DEIXEM QUE FALEM DE NÓS
TTITLE5=CORAÇÃO QUE DÓI
TTITLE6=VIM DIZER ADEUS
TTITLE7=SOU LOUCA POR ELE
TTITLE8=CAMA ENFEITIÇADA
TTITLE9=CHAMAGO BOM
TTITLE10=A RIVAL
TTITLE11=COITADA DE MIM
TTITLE12=PEDAÇO DE MAU CAMINHO
TTITLE13=CORAÇÃO INOCENTE
TTITLE14=A DOR DO ADEUS
TTITLE15=TE AMO, TE AMO
TTITLE16=DELÍRIOS DE AMOR
TTITLE17=VOCÊ É MINHA DEVOÇÃO
EXTD=LEONARDO
EXTT0=
EXTT1=
EXTT2=
EXTT3=
EXTT4=
EXTT5=
EXTT6=
EXTT7=
EXTT8=
EXTT9=
EXTT10=
EXTT11=
EXTT12=
EXTT13=
EXTT14=
EXTT15=
EXTT16=
EXTT17=
PLAYORDER=
